<svg version="1.0" xmlns="http://www.w3.org/2000/svg"
 width="3000.000000pt" height="3000.000000pt" viewBox="0 0 3000.000000 3000.000000"
 preserveAspectRatio="xMidYMid meet">

<g transform="translate(0.000000,3000.000000) scale(0.100000,-0.100000)"
fill="#000000" stroke="none">
<path d="M7665 27981 c6 -19 -13 -33 -37 -27 -7 1 -10 1 -5 -1 4 -3 7 -10 7
-18 0 -14 -57 -41 -67 -31 -3 3 -11 -4 -17 -16 -6 -12 -20 -25 -31 -28 -11 -3
-20 -10 -20 -16 0 -15 -83 -84 -102 -84 -8 0 -12 -4 -9 -9 3 -5 -4 -11 -17
-15 -19 -4 -58 -37 -92 -76 -5 -6 -22 -21 -37 -33 -17 -14 -25 -27 -20 -34 5
-8 18 -2 44 23 20 18 40 34 45 34 14 1 79 59 66 60 -7 0 -13 5 -13 11 0 8 4 8
15 -1 11 -9 23 -5 60 20 26 18 80 47 120 66 60 28 86 34 138 34 57 0 69 -4
103 -31 74 -58 81 -148 23 -278 -27 -60 -30 -74 -18 -81 11 -7 11 -12 1 -22
-9 -9 -12 -9 -12 5 0 9 -4 17 -10 17 -5 0 -10 -4 -10 -9 0 -5 -25 -45 -55 -89
-30 -45 -55 -88 -55 -97 0 -9 -5 -25 -11 -37 -16 -29 -2 -35 24 -10 13 12 28
22 34 22 14 0 24 26 17 45 -4 10 0 15 14 15 26 0 102 85 109 122 4 22 10 27
24 23 11 -4 19 -2 19 4 0 5 25 39 56 75 53 62 56 68 49 103 -9 50 -31 91 -69
131 -17 18 -31 38 -31 45 -1 23 -50 111 -80 143 -47 50 -80 67 -104 55 -25
-14 -34 -14 -26 -1 3 6 -1 10 -10 10 -11 0 -15 -6 -10 -19z m25 -76 c32 -17
40 -35 15 -35 -16 0 -55 30 -55 42 0 11 7 10 40 -7z m118 -13 c2 -7 -5 -7 -22
1 -14 7 -26 15 -26 19 0 11 43 -7 48 -20z m22 -49 c0 -13 -3 -13 -15 -3 -8 7
-12 16 -9 21 8 13 24 1 24 -18z m60 -268 c0 -8 -9 -19 -20 -25 -17 -9 -19 -8
-13 7 6 15 21 32 31 33 1 0 2 -7 2 -15z m56 -32 c-10 -10 -19 5 -10 18 6 11 8
11 12 0 2 -7 1 -15 -2 -18z m-146 -164 c0 -5 -4 -9 -10 -9 -5 0 -10 7 -10 16
0 8 5 12 10 9 6 -3 10 -10 10 -16z"/>
<path d="M8365 27969 c-4 -6 -5 -13 -2 -16 7 -7 27 6 27 18 0 12 -17 12 -25
-2z"/>
<path d="M8367 27905 c-14 -7 -35 -11 -45 -8 -11 3 -31 -6 -51 -23 -39 -33
-34 -42 11 -18 18 10 45 19 60 20 30 2 74 29 61 37 -5 3 -21 0 -36 -8z"/>
<path d="M8429 27829 c-8 -5 -24 -9 -36 -9 -39 0 -189 -77 -241 -123 -28 -25
-48 -48 -44 -51 4 -2 50 17 102 44 52 27 101 49 108 50 7 0 31 9 55 20 23 10
51 18 62 17 12 -1 19 3 17 12 -1 7 2 19 8 26 13 16 -10 27 -31 14z m-19 -33
c0 -11 -19 -15 -25 -6 -3 5 1 10 9 10 9 0 16 -2 16 -4z"/>
<path d="M8372 27714 c-12 -8 -22 -12 -22 -9 0 3 -14 -2 -30 -12 -26 -15 -28
-19 -13 -24 14 -5 10 -11 -22 -32 -59 -39 -100 -75 -93 -82 4 -4 30 11 60 33
52 38 94 58 112 53 5 -1 12 2 15 6 3 4 15 13 26 19 11 7 19 20 18 30 -1 10 4
22 10 26 7 5 2 8 -13 8 -14 0 -36 -7 -48 -16z"/>
<path d="M8240 27650 c-13 -8 -13 -10 2 -10 9 0 20 5 23 10 8 13 -5 13 -25 0z"/>
<path d="M8394 27607 c4 -19 -2 -26 -42 -47 -55 -28 -114 -71 -108 -77 2 -2
35 13 73 34 37 21 98 52 135 68 37 17 68 32 68 35 0 3 -18 5 -40 5 -28 1 -39
-3 -36 -11 3 -7 -2 -15 -10 -18 -9 -4 -14 1 -14 14 0 12 -7 20 -16 20 -12 0
-15 -6 -10 -23z"/>
<path d="M8360 27600 c0 -5 5 -10 11 -10 5 0 7 5 4 10 -3 6 -8 10 -11 10 -2 0
-4 -4 -4 -10z"/>
<path d="M7175 27570 c-24 -27 -14 -35 15 -12 14 11 19 21 13 25 -6 4 -18 -2
-28 -13z"/>
<path d="M7095 27499 c-22 -23 -31 -37 -20 -31 38 22 68 49 64 61 -3 7 -22 -7
-44 -30z"/>
<path d="M8220 27520 c0 -5 5 -10 11 -10 5 0 7 5 4 10 -3 6 -8 10 -11 10 -2 0
-4 -4 -4 -10z"/>
<path d="M8205 27470 c-3 -5 -2 -10 4 -10 5 0 13 5 16 10 3 6 2 10 -4 10 -5 0
-13 -4 -16 -10z"/>
<path d="M8208 27411 c-90 -36 -156 -78 -280 -176 -28 -22 -58 -44 -67 -50 -9
-5 -30 -21 -48 -35 -17 -14 -43 -33 -57 -43 -14 -10 -26 -24 -26 -31 0 -16
-84 -87 -122 -104 -16 -6 -28 -16 -28 -22 0 -5 -9 -10 -20 -10 -11 0 -20 -7
-20 -15 0 -22 -37 -18 -50 4 -14 27 -13 29 13 33 15 2 21 9 19 21 -2 15 2 16
24 11 25 -6 26 -5 20 19 -3 14 -2 29 4 32 5 3 10 11 10 18 0 8 -3 8 -12 -1
-18 -18 -36 -14 -44 10 -6 21 -8 21 -37 -13 -16 -18 -93 -103 -171 -188 -144
-156 -176 -196 -176 -218 0 -22 14 -14 40 22 14 19 31 32 38 30 9 -3 11 1 7
15 -7 23 5 26 24 8 11 -11 12 -9 6 10 -3 12 -2 22 3 22 5 0 17 -10 26 -22 17
-23 17 -22 12 19 -3 32 0 43 12 48 10 3 21 -1 28 -9 16 -22 27 -20 21 3 -3 12
3 27 14 37 10 9 19 23 19 31 0 7 7 13 15 13 18 0 18 -1 5 -35 -9 -23 -8 -26 6
-21 8 3 18 6 20 6 2 0 4 7 4 15 0 9 6 12 15 9 22 -9 18 14 -5 26 -29 15 -25
30 9 30 20 0 30 -6 34 -20 5 -20 7 -19 63 10 32 16 65 30 74 30 8 0 71 48 140
106 169 143 292 236 433 327 155 102 156 108 5 48z m-418 -321 c0 -5 -5 -10
-11 -10 -5 0 -7 5 -4 10 3 6 8 10 11 10 2 0 4 -4 4 -10z"/>
<path d="M6970 27383 c-30 -29 -50 -53 -44 -53 5 0 34 25 64 55 70 70 53 69
-20 -2z"/>
<path d="M8547 27423 c-10 -9 -9 -23 2 -23 5 0 11 7 15 15 5 15 -5 20 -17 8z"/>
<path d="M7716 27175 c-3 -8 -14 -15 -25 -15 -21 0 -36 -26 -21 -35 10 -6 60
41 60 56 0 14 -7 10 -14 -6z"/>
<path d="M7627 27123 c-4 -6 0 -16 8 -23 21 -17 28 -8 11 15 -8 11 -15 14 -19
8z"/>
<path d="M7601 27086 c-10 -12 -9 -17 8 -25 26 -14 40 5 19 25 -13 13 -16 13
-27 0z"/>
<path d="M7660 27055 c-11 -13 -10 -14 4 -9 9 3 16 10 16 15 0 13 -6 11 -20
-6z"/>
<path d="M7082 26628 c-18 -18 -14 -28 8 -28 11 0 20 6 20 14 0 21 -15 27 -28
14z"/>
<path d="M9390 26505 c0 -6 33 -47 73 -92 39 -45 101 -116 137 -158 36 -42 93
-107 128 -146 34 -39 62 -76 62 -83 0 -7 27 -42 60 -77 33 -35 60 -71 60 -79
0 -8 36 -52 80 -96 49 -50 78 -87 75 -96 -4 -9 25 -44 75 -93 45 -43 79 -84
76 -91 -3 -7 37 -53 90 -103 52 -50 94 -93 94 -97 0 -7 217 -230 534 -550 115
-117 213 -221 217 -232 13 -34 -8 -35 -31 -2 -22 31 -130 110 -149 110 -6 0
-11 -7 -11 -16 0 -11 -17 -2 -52 28 -104 87 -144 107 -118 59 6 -12 9 -21 6
-21 -2 0 -39 34 -81 75 -78 77 -95 87 -95 58 0 -14 -5 -13 -27 8 -43 38 -94
71 -100 65 -11 -11 8 -37 42 -57 20 -12 34 -24 31 -27 -7 -6 -47 20 -94 62
-46 40 -109 86 -117 86 -3 0 -3 -10 1 -22 l6 -22 -33 23 c-59 39 -80 46 -88
33 -6 -9 -20 -6 -55 14 -37 21 -50 24 -56 14 -6 -10 -20 -7 -61 14 -30 14 -98
37 -151 51 -53 14 -104 28 -112 31 -9 3 -16 1 -16 -5 0 -6 4 -11 9 -11 5 0 59
-29 122 -65 62 -36 117 -65 122 -65 6 0 15 6 21 14 9 11 18 10 54 -6 51 -23
51 -36 1 -15 -38 15 -59 12 -59 -9 0 -18 -20 -18 -45 -1 -11 8 -36 19 -55 26
-30 10 -37 9 -47 -5 -11 -16 -17 -15 -72 9 -51 22 -61 24 -71 11 -16 -18 -29
-18 -50 1 -10 9 -26 17 -37 19 -11 3 -38 9 -59 15 -22 6 -56 11 -76 11 -20 0
-47 4 -60 9 -35 13 -128 23 -128 13 0 -4 42 -30 93 -56 50 -26 124 -65 162
-87 39 -21 82 -39 97 -39 18 0 33 -10 47 -29 14 -19 39 -35 70 -46 33 -11 58
-28 80 -55 18 -22 38 -40 46 -40 8 0 33 -7 55 -16 33 -14 40 -21 40 -44 0 -32
11 -37 128 -61 58 -12 77 -28 52 -44 -34 -21 84 -75 165 -75 24 0 26 -3 23
-37 -3 -32 1 -39 25 -51 16 -8 62 -15 103 -15 l74 -2 -6 -31 c-3 -19 -1 -34 8
-40 17 -14 110 -34 154 -34 32 0 34 -2 34 -34 0 -41 26 -55 111 -59 63 -4 80
-11 72 -32 -8 -22 14 -44 53 -51 19 -3 37 -10 40 -15 3 -5 27 -9 55 -9 45 0
49 -2 49 -25 0 -13 8 -29 18 -34 18 -9 99 -24 142 -25 19 -1 26 -7 28 -26 6
-40 18 -47 97 -55 64 -6 75 -10 81 -28 10 -31 22 -37 86 -37 52 0 58 -2 70
-27 11 -24 22 -29 77 -38 51 -8 66 -15 74 -32 7 -17 21 -24 56 -28 25 -4 52
-7 60 -8 8 -1 19 -11 25 -22 6 -11 12 -22 13 -24 1 -2 28 -9 60 -15 49 -10 59
-15 61 -35 3 -20 0 -23 -18 -18 -13 3 -28 0 -36 -7 -12 -13 -63 -9 -123 10
-22 6 -22 5 -11 -16 11 -21 11 -22 -11 -16 -13 3 -46 9 -73 13 -47 6 -48 5
-37 -15 13 -24 -3 -42 -22 -23 -14 14 -104 15 -112 1 -4 -6 -1 -18 6 -26 18
-21 10 -24 -53 -15 -70 9 -86 2 -71 -32 l11 -24 -66 2 c-75 3 -97 -7 -81 -36
16 -30 5 -35 -61 -29 -74 7 -88 1 -73 -33 15 -32 9 -37 -43 -37 -24 0 -46 -4
-49 -10 -3 -5 -14 -10 -25 -10 -14 0 -18 -7 -16 -32 1 -32 1 -32 -64 -42 -59
-10 -65 -13 -65 -35 0 -19 -7 -26 -31 -33 -35 -9 -60 -33 -66 -63 -2 -13 -12
-21 -30 -23 -14 -2 -41 -19 -60 -37 -18 -19 -40 -35 -48 -35 -8 0 -30 -9 -48
-20 -18 -11 -38 -20 -44 -20 -6 0 -35 -18 -64 -40 -29 -22 -65 -45 -78 -52
-25 -11 -27 -32 -3 -23 7 3 58 11 115 19 57 8 121 23 144 35 28 13 46 17 52
11 13 -13 63 -13 71 0 10 16 53 11 64 -7 8 -15 12 -16 22 -5 7 6 21 12 30 12
9 0 22 7 29 15 19 23 40 18 40 -10 0 -14 3 -25 7 -25 13 0 112 50 118 60 11
18 25 11 25 -13 0 -33 9 -39 34 -22 11 8 28 15 37 15 9 0 24 9 34 20 25 28 45
25 45 -5 0 -18 5 -25 19 -25 22 0 87 42 112 73 14 18 18 19 22 7 17 -53 16
-51 39 -39 13 6 42 27 65 45 23 19 44 34 46 34 3 0 7 -10 9 -22 5 -36 31 -32
80 12 53 46 58 48 58 20 0 -34 38 -23 85 25 42 42 45 43 55 25 16 -29 34 -25
61 14 22 33 26 35 67 29 38 -5 44 -3 49 16 5 21 33 30 33 11 0 -18 26 -10 50
15 l23 24 18 -22 18 -22 15 35 c15 36 18 34 30 -22 5 -23 3 -28 -12 -28 -10 0
-27 -6 -38 -14 -18 -14 -18 -16 -2 -32 17 -17 16 -19 -15 -45 l-32 -27 20 -22
19 -21 -32 -25 c-31 -24 -46 -74 -22 -74 20 0 9 -27 -20 -48 -31 -24 -41 -62
-15 -62 26 0 17 -24 -20 -53 -37 -30 -45 -54 -20 -63 23 -9 18 -25 -20 -60
-39 -36 -45 -63 -15 -71 26 -7 25 -25 -1 -49 -12 -10 -28 -32 -36 -47 -13 -27
-13 -29 6 -34 27 -7 27 -25 0 -49 -12 -10 -27 -31 -34 -45 -12 -22 -12 -28 3
-42 15 -16 15 -19 -2 -47 -12 -21 -15 -40 -11 -61 4 -18 2 -36 -6 -45 -6 -8
-13 -32 -15 -53 -1 -22 -9 -50 -18 -63 -19 -29 -88 -220 -82 -226 7 -6 104
100 139 152 16 22 39 46 51 53 13 7 27 24 30 38 5 18 13 25 29 25 17 0 28 9
38 33 10 24 20 31 36 30 18 -2 24 5 34 40 6 23 13 48 15 56 4 11 8 10 24 -4
19 -17 20 -17 26 1 3 11 10 27 15 36 5 10 9 29 9 43 0 27 17 34 26 10 18 -45
44 8 44 90 0 22 3 26 12 17 24 -24 36 -12 43 43 6 52 8 55 31 49 23 -6 24 -4
24 50 0 45 3 54 15 50 12 -5 15 5 15 55 0 53 2 61 19 61 17 0 18 4 11 33 -21
83 -21 87 -4 80 18 -7 18 3 -2 90 -8 35 14 36 39 1 13 -17 16 -34 12 -53 -4
-19 -1 -32 10 -41 9 -8 15 -29 15 -55 0 -40 19 -73 33 -58 4 3 7 -1 7 -9 0 -9
-7 -21 -15 -28 -19 -16 -19 -34 1 -51 12 -9 15 -24 11 -51 -3 -21 -1 -41 5
-44 9 -6 3 -226 -8 -291 -4 -18 -2 -33 3 -33 11 0 73 119 73 141 0 9 7 19 15
23 8 3 15 14 15 25 0 10 7 22 16 25 10 4 14 12 10 22 -5 13 -2 15 13 11 17 -4
19 -1 14 30 -6 34 -5 35 16 22 11 -8 21 -23 21 -35 0 -12 8 -32 18 -45 11 -13
22 -36 26 -51 3 -16 10 -28 15 -28 5 0 19 -30 32 -67 24 -74 68 -174 68 -158
0 6 -9 48 -20 95 -11 47 -25 112 -30 145 -5 33 -14 68 -19 77 -6 10 -10 28
-10 41 0 13 -6 32 -14 42 -8 11 -12 24 -9 31 2 6 -12 46 -32 89 -19 42 -35 83
-35 89 0 6 -9 22 -20 36 -11 14 -20 30 -20 37 0 7 -16 38 -36 70 -19 32 -33
48 -29 36 8 -28 -5 -30 -28 -3 -9 11 -14 27 -10 37 3 10 2 15 -2 10 -11 -9
-45 22 -45 41 0 8 -18 36 -39 64 -22 27 -42 54 -44 61 -2 7 -8 9 -12 5 -4 -4
-1 -22 7 -40 17 -36 22 -128 7 -128 -5 0 -12 8 -15 18 -3 9 -10 25 -16 36 -7
13 -6 21 3 27 10 6 9 15 -4 46 -9 21 -15 53 -14 71 2 24 -2 36 -15 43 -10 5
-18 19 -18 29 0 11 -4 20 -9 20 -19 0 -61 48 -61 69 0 14 -6 21 -20 21 -13 0
-20 7 -20 19 0 11 -4 23 -10 26 -5 3 -10 15 -10 26 0 10 -4 19 -10 19 -5 0
-10 -5 -10 -10 0 -20 -48 25 -64 60 -9 19 -30 45 -48 58 -18 12 -27 22 -20 22
25 0 11 27 -24 46 -48 26 -152 162 -137 179 5 4 0 5 -9 2 -11 -4 -17 -2 -15 6
1 7 -4 11 -11 9 -8 -1 -20 15 -29 38 -11 27 -24 42 -40 46 -12 4 -23 11 -23
18 0 6 -20 30 -45 54 -25 24 -43 47 -40 52 3 4 -2 23 -12 42 -9 18 -19 39 -23
47 -3 8 -22 26 -41 40 l-34 25 32 -35 c18 -19 34 -47 35 -62 1 -15 8 -27 15
-27 7 0 13 -9 13 -20 0 -13 -5 -18 -15 -14 -8 4 -15 11 -15 16 0 6 -18 32 -40
58 -22 26 -40 53 -40 58 0 6 -9 19 -19 29 -10 10 -24 36 -30 59 -12 46 -40 65
-86 62 -22 -2 -30 1 -30 14 0 23 -54 78 -77 78 -24 0 -45 39 -27 52 11 8 10 9
-2 5 -16 -5 -59 25 -59 42 0 4 -27 30 -60 56 -33 27 -59 53 -58 59 2 12 -110
126 -125 126 -9 0 -71 60 -72 70 0 6 -40 54 -73 88 -12 13 -28 22 -35 19 -11
-4 -50 47 -52 68 0 6 -9 8 -20 7 -16 -3 -18 -1 -7 9 17 18 15 39 -4 39 -16 0
-67 49 -85 82 -5 10 -20 18 -33 18 -13 0 -27 7 -30 16 -3 8 -10 13 -15 10 -5
-3 -12 5 -15 19 -4 14 -13 25 -21 25 -8 0 -15 3 -16 8 0 4 -2 17 -3 30 -3 28
-44 72 -66 72 -9 0 -27 12 -41 26 -13 14 -36 32 -51 40 -15 8 -34 27 -42 43
-9 16 -27 32 -41 35 -31 8 -27 32 4 28 15 -1 21 2 18 10 -2 7 -12 12 -23 10
-13 -2 -37 18 -73 59 -39 44 -56 57 -62 48 -4 -8 -9 -11 -11 -9 -2 3 -14 20
-27 39 -22 31 -22 35 -7 46 23 17 20 28 -5 14 -19 -10 -25 -6 -52 28 -66 81
-131 144 -144 139 -7 -3 -13 -2 -13 2 0 11 -130 156 -143 161 -17 5 -136 118
-384 365 -117 116 -213 206 -213 201z m485 -515 c3 -5 1 -10 -4 -10 -6 0 -11
5 -11 10 0 6 2 10 4 10 3 0 8 -4 11 -10z m152 -127 c40 -42 73 -80 73 -86 0
-5 -23 18 -51 52 -29 33 -56 58 -62 54 -6 -3 -7 -1 -3 5 3 6 -7 16 -24 24 -30
13 -40 28 -18 28 6 0 45 -34 85 -77z m407 -401 c19 -27 19 -27 -12 2 -35 32
-38 38 -19 30 6 -3 21 -17 31 -32z m300 -291 c11 -12 17 -24 13 -27 -5 -6 -28
14 -57 51 -14 17 -14 18 5 8 11 -6 29 -21 39 -32z m-394 -292 c40 -26 56 -33
58 -23 5 22 19 16 24 -11 5 -25 -14 -36 -27 -16 -10 16 -137 81 -147 75 -5 -4
-7 -17 -4 -30 8 -29 -1 -30 -31 -5 -29 24 -29 34 -2 26 14 -5 19 -3 15 3 -8
14 23 32 43 24 9 -3 40 -22 71 -43z m270 -119 c0 -5 -2 -10 -4 -10 -3 0 -8 5
-11 10 -3 6 -1 10 4 10 6 0 11 -4 11 -10z m540 -130 c0 -5 -2 -10 -4 -10 -3 0
-8 5 -11 10 -3 6 -1 10 4 10 6 0 11 -4 11 -10z m329 -344 c1 -11 -79 61 -103
94 -11 14 7 0 41 -30 33 -30 61 -59 62 -64z m259 -106 c23 -19 27 -50 7 -57
-8 -2 -36 34 -53 70 -7 14 23 6 46 -13z m33 -114 c16 -14 25 -27 20 -30 -4 -3
-20 8 -35 24 -32 36 -24 39 15 6z m384 -556 c3 -6 -1 -7 -9 -4 -18 7 -21 14
-7 14 6 0 13 -4 16 -10z m96 -5 c-1 -15 -24 -12 -29 3 -3 9 2 13 12 10 10 -1
17 -7 17 -13z m467 -601 c-4 -3 -12 5 -18 18 -12 22 -12 22 6 6 10 -10 15 -20
12 -24z"/>
<path d="M9938 26113 c50 -60 92 -99 92 -87 0 5 -25 33 -55 63 -30 30 -55 58
-55 63 0 4 -5 8 -11 8 -6 0 7 -21 29 -47z"/>
<path d="M10095 25930 c38 -38 71 -70 74 -70 8 0 -124 138 -134 139 -5 0 22
-30 60 -69z"/>
<path d="M6054 25863 c-3 -10 -10 -26 -15 -35 -13 -25 -11 -60 3 -56 7 3 16
20 21 39 5 19 16 42 24 52 15 16 14 17 -6 17 -12 0 -24 -8 -27 -17z"/>
<path d="M6279 25815 c-25 -13 -51 -30 -58 -39 -7 -8 12 -1 43 15 31 17 58 35
61 40 8 12 7 12 -46 -16z"/>
<path d="M10200 25804 c0 -10 114 -125 135 -136 11 -5 -6 15 -37 46 -32 31
-58 60 -58 64 0 4 -9 13 -20 20 -11 7 -20 9 -20 6z"/>
<path d="M6155 25750 c-3 -5 1 -10 9 -10 8 0 18 5 21 10 3 6 -1 10 -9 10 -8 0
-18 -4 -21 -10z"/>
<path d="M6186 25715 c-16 -12 -46 -59 -46 -72 0 -11 49 34 50 46 0 8 8 20 18
27 9 7 13 13 7 13 -5 0 -18 -6 -29 -14z"/>
<path d="M6356 25664 c-5 -14 -4 -15 9 -4 17 14 19 20 6 20 -5 0 -12 -7 -15
-16z"/>
<path d="M6086 25628 c-11 -18 -37 -54 -59 -80 -35 -43 -37 -48 -18 -48 12 0
21 6 21 15 0 8 5 15 10 15 6 0 10 8 11 18 0 10 3 12 6 5 11 -27 33 0 37 45 1
8 9 20 20 27 10 8 15 18 11 24 -10 18 -20 13 -39 -21z"/>
<path d="M6142 25625 c4 -4 0 -14 -10 -21 -16 -12 -16 -13 1 -20 12 -4 24 -1
34 9 14 14 13 16 -8 27 -13 7 -21 9 -17 5z"/>
<path d="M6327 25623 c-4 -3 -7 -11 -7 -17 0 -6 5 -5 12 2 6 6 9 14 7 17 -3 3
-9 2 -12 -2z"/>
<path d="M6272 25538 c-17 -29 -42 -64 -56 -77 -14 -14 -35 -44 -47 -67 -15
-32 -25 -41 -37 -37 -14 5 -15 3 -4 -8 20 -22 14 -37 -18 -44 -32 -7 -37 -14
-18 -33 9 -9 7 -16 -7 -32 -11 -12 -14 -20 -6 -20 8 0 10 -7 6 -19 -3 -11 -2
-22 3 -25 5 -3 20 22 32 57 31 85 87 194 115 225 28 30 79 121 72 128 -3 3
-19 -19 -35 -48z"/>
<path d="M10470 25507 c30 -31 59 -57 64 -57 13 0 -30 45 -79 83 -35 27 -33
23 15 -26z"/>
<path d="M6055 25500 c-3 -5 -1 -10 4 -10 6 0 11 5 11 10 0 6 -2 10 -4 10 -3
0 -8 -4 -11 -10z"/>
<path d="M6549 25453 l-34 -38 38 34 c20 19 37 36 37 38 0 8 -8 0 -41 -34z"/>
<path d="M6010 25443 c0 -22 2 -25 10 -13 13 20 13 40 0 40 -5 0 -10 -12 -10
-27z"/>
<path d="M5810 25405 c7 -8 16 -15 21 -15 5 0 6 7 3 15 -4 8 -13 15 -21 15
-13 0 -13 -3 -3 -15z"/>
<path d="M6484 25405 c-10 -8 -14 -15 -8 -15 6 0 17 7 24 15 16 19 9 19 -16 0z"/>
<path d="M5985 25400 c-3 -5 -2 -10 4 -10 5 0 13 5 16 10 3 6 2 10 -4 10 -5 0
-13 -4 -16 -10z"/>
<path d="M5750 25370 c0 -5 5 -10 10 -10 6 0 10 5 10 10 0 6 -4 10 -10 10 -5
0 -10 -4 -10 -10z"/>
<path d="M5900 25345 c0 -8 5 -15 10 -15 6 0 10 7 10 15 0 8 -4 15 -10 15 -5
0 -10 -7 -10 -15z"/>
<path d="M5990 25350 c0 -5 5 -10 11 -10 5 0 7 5 4 10 -3 6 -8 10 -11 10 -2 0
-4 -4 -4 -10z"/>
<path d="M6347 25316 c-3 -8 5 -18 20 -25 33 -15 41 -7 18 19 -21 24 -31 25
-38 6z"/>
<path d="M5872 25289 c-11 -16 -16 -18 -28 -9 -11 10 -14 9 -14 -4 0 -11 9
-16 29 -16 23 0 30 5 33 25 6 30 -3 32 -20 4z"/>
<path d="M5970 25300 c0 -5 5 -10 10 -10 6 0 10 5 10 10 0 6 -4 10 -10 10 -5
0 -10 -4 -10 -10z"/>
<path d="M6270 25271 c-12 -24 -13 -34 -1 -27 9 6 22 46 15 46 -2 0 -8 -9 -14
-19z"/>
<path d="M10670 25286 c0 -2 7 -9 15 -16 13 -11 14 -10 9 4 -5 14 -24 23 -24
12z"/>
<path d="M6322 25251 c7 -9 13 -18 14 -19 1 -2 7 5 13 16 9 17 7 20 -15 20
-21 0 -23 -3 -12 -17z"/>
<path d="M6011 25244 c0 -11 3 -14 6 -6 3 7 2 16 -1 19 -3 4 -6 -2 -5 -13z"/>
<path d="M6155 25216 c-9 -21 -15 -45 -13 -54 2 -10 11 5 20 33 20 59 15 74
-7 21z"/>
<path d="M6242 25212 c-16 -28 -12 -45 6 -33 8 5 12 19 10 32 l-3 24 -13 -23z"/>
<path d="M6287 25184 c-4 -4 -7 -14 -7 -23 0 -11 3 -12 11 -4 6 6 10 16 7 23
-2 6 -7 8 -11 4z"/>
<path d="M5998 25153 c7 -3 16 -2 19 1 4 3 -2 6 -13 5 -11 0 -14 -3 -6 -6z"/>
<path d="M11990 23921 c0 -6 4 -13 10 -16 6 -3 7 1 4 9 -7 18 -14 21 -14 7z"/>
<path d="M12020 23895 c0 -15 18 -40 24 -34 3 3 -1 14 -9 25 -8 10 -14 15 -15
9z"/>
<path d="M12340 23470 c0 -5 5 -10 10 -10 6 0 10 5 10 10 0 6 -4 10 -10 10 -5
0 -10 -4 -10 -10z"/>
<path d="M12650 23080 c0 -5 5 -10 11 -10 5 0 7 5 4 10 -3 6 -8 10 -11 10 -2
0 -4 -4 -4 -10z"/>
<path d="M11064 19795 c15 -111 26 -334 29 -580 6 -397 -20 -2664 -33 -2966
-4 -107 -5 -211 0 -230 l8 -34 1 30 c1 17 6 111 11 210 5 99 12 556 15 1015 3
459 8 876 10 925 3 50 5 369 5 710 0 478 -3 658 -15 785 -9 90 -20 169 -26
175 -9 7 -10 -4 -5 -40z"/>
<path d="M13860 19491 c0 -5 5 -13 10 -16 6 -3 10 -2 10 4 0 5 -4 13 -10 16
-5 3 -10 2 -10 -4z"/>
<path d="M13871 19414 c-1 -35 27 -351 44 -489 37 -321 44 -613 38 -1675 -6
-987 1 -1323 27 -1430 7 -32 8 -29 11 30 2 36 2 76 0 90 -1 14 -3 606 -4 1315
-3 1434 5 1221 -72 1910 -14 127 -30 244 -35 260 -8 29 -8 29 -9 -11z"/>
<path d="M22860 13834 c0 -5 7 -19 15 -30 8 -10 15 -14 15 -8 0 5 -7 19 -15
30 -8 10 -15 14 -15 8z"/>
<path d="M22431 13348 c-10 -27 -2 -60 13 -55 13 4 17 77 4 77 -5 0 -12 -10
-17 -22z"/>
<path d="M23220 13249 c0 -8 7 -24 15 -35 11 -14 14 -15 14 -4 0 8 -6 24 -14
34 -11 15 -15 16 -15 5z"/>
<path d="M23661 12959 c24 -30 73 -92 109 -138 81 -103 103 -130 94 -112 -3 7
-1 17 6 21 7 5 10 15 6 25 -5 15 -9 15 -23 4 -14 -12 -16 -12 -11 2 8 20 -78
125 -161 198 l-65 56 45 -56z"/>
<path d="M23120 12753 c0 -5 9 -18 20 -28 11 -10 20 -14 20 -8 0 5 -9 18 -20
28 -11 10 -20 14 -20 8z"/>
<path d="M22766 12690 c15 -22 31 -40 36 -40 5 0 -6 18 -23 40 -18 22 -34 40
-36 40 -2 0 9 -18 23 -40z"/>
<path d="M23890 12700 c0 -5 5 -10 10 -10 6 0 10 5 10 10 0 6 -4 10 -10 10 -5
0 -10 -4 -10 -10z"/>
<path d="M23918 12655 c-3 -14 1 -30 8 -35 9 -8 13 -6 16 7 3 16 6 15 17 -6 9
-16 10 -26 3 -30 -10 -6 76 -111 90 -111 12 0 -21 56 -47 80 -14 13 -25 33
-25 44 -1 18 -41 76 -53 76 -3 0 -7 -11 -9 -25z"/>
<path d="M22810 12637 c0 -5 35 -50 78 -102 42 -51 94 -114 116 -139 21 -26
41 -45 44 -41 3 3 -8 20 -25 38 -16 17 -50 59 -76 92 -57 75 -136 163 -137
152z"/>
<path d="M23245 12600 c10 -11 20 -20 23 -20 3 0 -3 9 -13 20 -10 11 -20 20
-23 20 -3 0 3 -9 13 -20z"/>
<path d="M23350 12473 c0 -5 12 -20 26 -34 24 -21 26 -22 16 -3 -13 25 -42 50
-42 37z"/>
<path d="M24056 12438 c13 -23 37 -48 46 -48 5 0 0 14 -12 30 -20 29 -49 43
-34 18z"/>
<path d="M23452 12350 c7 -11 17 -20 22 -20 5 0 1 9 -9 20 -10 11 -20 20 -22
20 -2 0 2 -9 9 -20z"/>
<path d="M23528 12264 c23 -28 49 -57 58 -65 37 -30 -4 26 -52 71 l-48 45 42
-51z"/>
<path d="M23160 12215 c7 -9 15 -13 17 -11 7 7 -7 26 -19 26 -6 0 -6 -6 2 -15z"/>
<path d="M23245 12110 c3 -5 8 -10 11 -10 2 0 4 5 4 10 0 6 -5 10 -11 10 -5 0
-7 -4 -4 -10z"/>
<path d="M23286 12066 c3 -8 18 -22 32 -32 27 -17 27 -17 -2 15 -33 35 -38 37
-30 17z"/>
<path d="M23350 11996 c0 -2 8 -10 18 -17 15 -13 16 -12 3 4 -13 16 -21 21
-21 13z"/>
<path d="M23580 11882 c0 -14 129 -147 130 -134 0 7 -23 40 -52 72 -49 56 -78
79 -78 62z"/>
<path d="M21090 11558 c1 -17 28 -53 35 -46 8 8 -13 58 -25 58 -5 0 -10 -6
-10 -12z"/>
<path d="M21055 11531 c-3 -5 -1 -12 5 -16 12 -7 30 2 30 16 0 12 -27 12 -35
0z"/>
<path d="M21100 11460 c0 -12 69 -112 84 -122 21 -14 15 0 -27 65 -40 63 -57
80 -57 57z"/>
<path d="M21160 11445 c0 -11 48 -81 69 -99 22 -20 28 -46 11 -46 -6 0 0 -16
12 -35 17 -26 28 -34 42 -31 21 5 46 -9 46 -26 0 -6 -7 -5 -15 2 -8 7 -15 8
-15 2 0 -5 7 -15 15 -22 8 -7 15 -9 15 -6 0 15 40 -16 40 -32 1 -22 45 -72 65
-72 8 0 15 -4 15 -10 0 -5 -7 -10 -16 -10 -11 0 -7 -9 15 -30 16 -17 33 -39
36 -50 4 -11 11 -20 16 -20 14 0 11 26 -6 40 -9 7 -13 20 -10 29 3 10 -18 45
-58 92 -211 255 -249 303 -254 315 -5 13 -23 20 -23 9z m130 -181 c0 -20 -7
-17 -20 6 -9 16 -8 18 5 14 8 -4 15 -12 15 -20z"/>
<path d="M21622 10878 c-13 -13 -16 -38 -4 -38 4 0 13 -13 20 -30 16 -35 32
-39 32 -9 0 11 -4 18 -8 15 -5 -3 -15 6 -23 20 -11 21 -11 27 0 33 7 5 9 11 4
14 -6 4 -15 1 -21 -5z"/>
<path d="M21900 10798 c0 -19 35 -51 50 -46 6 2 -3 16 -20 33 -21 20 -30 24
-30 13z"/>
<path d="M21703 10789 c-8 -8 -6 -16 8 -30 10 -10 16 -25 13 -34 -4 -8 -1 -15
6 -15 9 0 11 10 6 31 -3 17 -6 38 -6 45 0 17 -12 18 -27 3z"/>
<path d="M21764 10745 c3 -8 1 -26 -4 -40 -7 -20 -6 -23 6 -18 8 3 13 11 10
19 -3 7 0 14 6 16 14 5 3 38 -13 38 -6 0 -9 -7 -5 -15z"/>
<path d="M21920 10708 c0 -18 18 -34 28 -24 3 4 -2 14 -11 23 -16 16 -17 16
-17 1z"/>
<path d="M21732 10621 c6 -17 151 -162 156 -156 3 2 11 0 19 -6 20 -17 16 -2
-9 31 -12 17 -30 30 -40 30 -10 0 -18 6 -18 13 -1 18 -33 54 -57 61 -12 4 -24
13 -27 21 -6 16 -30 21 -24 6z"/>
<path d="M21900 10431 c0 -5 7 -12 16 -15 14 -5 15 -4 4 9 -14 17 -20 19 -20
6z"/>
<path d="M16400 8530 c0 -19 3 -21 12 -12 9 9 9 15 0 24 -9 9 -12 7 -12 -12z"/>
<path d="M16430 8430 c0 -15 34 -109 52 -143 18 -35 18 -10 -1 45 -23 66 -50
119 -51 98z"/>
<path d="M16520 8430 c0 -5 5 -10 10 -10 6 0 10 5 10 10 0 6 -4 10 -10 10 -5
0 -10 -4 -10 -10z"/>
<path d="M16480 8420 c0 -5 5 -10 10 -10 6 0 10 5 10 10 0 6 -4 10 -10 10 -5
0 -10 -4 -10 -10z"/>
<path d="M16541 8358 c11 -80 59 -194 59 -141 0 12 -9 43 -20 69 -21 47 -28
74 -29 107 -1 9 -5 17 -9 17 -5 0 -5 -24 -1 -52z"/>
<path d="M16760 7820 c0 -5 9 -10 20 -10 11 0 20 5 20 10 0 6 -9 10 -20 10
-11 0 -20 -4 -20 -10z"/>
<path d="M16710 7810 c-13 -9 -13 -10 0 -10 8 0 22 5 30 10 13 9 13 10 0 10
-8 0 -22 -5 -30 -10z"/>
<path d="M18524 7583 c-3 -16 -9 -38 -14 -50 -5 -13 -6 -23 -1 -23 4 0 13 17
20 38 7 20 15 43 17 50 3 6 1 12 -5 12 -6 0 -13 -12 -17 -27z"/>
</g>
</svg>
